<svg xmlns="http://www.w3.org/2000/svg" viewBox="0 0 432.1 445.4">
  <g fill="none" stroke="#FFF" stroke-width="12.5" stroke-linecap="round" stroke-linejoin="round">
    <path fill="#000" stroke="#000" stroke-width="37.4" d="M323.2 324.2c2.8-23.6 2-27 19.6-23.2l4.4.3c13.5.6 31.2-2.2 41.6-7 22.4-10.4 35.6-27.7 13.6-23.2-50.3 11-53.8-6-53.8-6 53-79 75.3-179 56-203-52-67-142.6-35-144-34h-.6c-10-2-21-3-33.5-3-22.8-.2-40 6-53.2 16 0 0-161.4-66.5-154 83.7 1.7 31 46 241 98.7 177.6 19-23 37.5-43 37.5-43 9.2 6.4 20.3 9.5 32 8.4l.8-1c-.3 3-.2 5.7.3 9-13.5 15-9.6 18-36.7 23.5-28 5.6-12 15.7-1 18.4 13 3 42 7 62-21l-1 3c5 4.4 5 30.7 5 49.6 1 19 2 36.3 6 46.6 3.7 10 8.3 37 44 29 29.7-6.3 52.5-15.5 54.6-101" stroke-linecap="butt" stroke-linejoin="miter" />
    <path fill="#336791" stroke="none" d="M402.4 271.2c-50.3 10.4-53.8-6.6-53.8-6.6 53-78.8 75.3-179 56.2-203.4C352.5-5.5 262 26 260.5 27h-.5c-10-2-21-3.3-33.6-3.5-22.8-.4-40 6-53.2 16 0 0-161.4-66.6-154 83.5 1.7 32 46 241.6 98.6 178.3 19.3-23.2 38-42.8 38-42.8 9 6 20.2 9.2 31.8 8l1-.7c-.4 3-.3 5.7.2 9-13.5 15.2-9.6 18-36.7 23.4-27 5.7-11 15.8 0 18.4 13 3.2 43 7.8 63-20.2l-1 3.2c5.6 4.3 9 27.7 8.7 49-.6 21.2-1 35.8 3 47.2 4 11.4 8.4 37 44 29.4 30-6.3 45.4-23 47.5-50.5 1.5-19.6 5-16.7 5-34.3l3-8.3c3-26 .4-35 19-31l4 1c13.8 1 31.5-2 42-7 22-10 35.4-27 13.4-23z" />
    <path d="M216 286.5c-1.5 49.5.2 99.4 5 111.5 5 12 15.3 35.7 51 28 29.8-6.4 40.6-18.7 45.3-46 3.5-20 10.2-76 11-87.3M173 38.2s-161.4-66-154 84c1.7 32 46 241.8 98.6 178.4 19.2-23.2 36.6-41.3 36.6-41.3m106-233c-5.5 1.6 90-35 144.2 34.3 19.2 24.5-3 124.5-56 203.3" />
    <path d="M348.3 264s3.4 17 53.7 6.6c22-4.5 8.8 12.8-13.5 23.2-18.4 8.5-59.5 10.7-60.2-1-1.7-30.3 21.7-21 20-28.7-1.5-6-12-13-19-30-6-14-82.7-127 21.4-110 3.8-1-27.2-99-124.6-100-97-1-94 120-94 120" stroke-linejoin="bevel" />
    <path d="M188.6 274.3c-13.6 15.2-9.6 18-36.7 23.4-28 5.7-12 15.8-1 18.4 12 4 42 8 62-20 6-8 0-22-9-25-4-1-10-4-17 4z" />
    <path d="M187.7 274c-1.3-9 3-19.5 7.6-32 7-18.5 22.8-37 10-96.2-9.5-44-73.3-9.2-73.4-3.2 0 6 2 30.2-1 58.5-6 37 23 69 56 65" />
    <path fill="#FFF" stroke-width="4.2" d="M172.5 141.7c-.3 2 3.8 7.5 9 8.2 5.2 0 9.7-4 10-6 .2-2-3.8-5-9-5-5.3-1-9.7 0-10 2z" stroke-linecap="butt" stroke-linejoin="miter" />
    <path fill="#FFF" stroke-width="2.1" d="M332 137.5c.2 2-3.8 7.5-9 8.2-5.3.8-9.7-3.5-10-5.5-.3-2 3.7-4.3 9-5 5.2-1 9.7.2 10 2.2z" stroke-linecap="butt" stroke-linejoin="miter" />
    <path d="M350.7 123.4c.8 16-3.5 27-4 44-.8 24.7 11.8 53-7.2 81.4" />
  </g>
</svg>
